<mxfile host="app.diagrams.net" modified="2022-03-31T13:10:30.154Z" agent="5.0 (Windows NT 10.0; Win64; x64) AppleWebKit/537.36 (KHTML, like Gecko) Chrome/99.0.4844.74 Safari/537.36 Edg/99.0.1150.55" etag="oKgwnEb_Aa9R_m1OnzZG" version="17.3.0" type="github">
  <diagram id="C5RBs43oDa-KdzZeNtuy" name="Page-1">
    <mxGraphModel dx="1626" dy="566" grid="1" gridSize="10" guides="1" tooltips="1" connect="1" arrows="1" fold="1" page="1" pageScale="1" pageWidth="827" pageHeight="1169" math="0" shadow="0">
      <root>
        <mxCell id="WIyWlLk6GJQsqaUBKTNV-0" />
        <mxCell id="WIyWlLk6GJQsqaUBKTNV-1" parent="WIyWlLk6GJQsqaUBKTNV-0" />
        <mxCell id="wFBebzfQempYTmUqBERj-8" style="edgeStyle=orthogonalEdgeStyle;curved=0;rounded=1;sketch=0;orthogonalLoop=1;jettySize=auto;html=1;fontColor=#5C5C5C;strokeColor=#006658;fillColor=#21C0A5;" parent="WIyWlLk6GJQsqaUBKTNV-1" source="wFBebzfQempYTmUqBERj-4" edge="1">
          <mxGeometry relative="1" as="geometry">
            <mxPoint x="-360" y="94" as="targetPoint" />
          </mxGeometry>
        </mxCell>
        <mxCell id="wFBebzfQempYTmUqBERj-20" style="edgeStyle=orthogonalEdgeStyle;curved=0;rounded=1;sketch=0;orthogonalLoop=1;jettySize=auto;html=1;entryX=-0.004;entryY=0.896;entryDx=0;entryDy=0;entryPerimeter=0;fontColor=#5C5C5C;strokeColor=#006658;fillColor=#21C0A5;" parent="WIyWlLk6GJQsqaUBKTNV-1" source="wFBebzfQempYTmUqBERj-4" target="wFBebzfQempYTmUqBERj-12" edge="1">
          <mxGeometry relative="1" as="geometry" />
        </mxCell>
        <mxCell id="wFBebzfQempYTmUqBERj-4" value="Banco" style="swimlane;fontStyle=1;align=center;verticalAlign=top;childLayout=stackLayout;horizontal=1;startSize=26;horizontalStack=0;resizeParent=1;resizeParentMax=0;resizeLast=0;collapsible=1;marginBottom=0;rounded=1;sketch=0;fontColor=#5C5C5C;strokeColor=#006658;fillColor=#21C0A5;" parent="WIyWlLk6GJQsqaUBKTNV-1" vertex="1">
          <mxGeometry x="-800" y="20" width="240" height="148" as="geometry" />
        </mxCell>
        <mxCell id="wFBebzfQempYTmUqBERj-5" value="- idAgencia: int&#xa;+ localAgencia: String" style="text;strokeColor=none;fillColor=none;align=left;verticalAlign=top;spacingLeft=4;spacingRight=4;overflow=hidden;rotatable=0;points=[[0,0.5],[1,0.5]];portConstraint=eastwest;rounded=1;sketch=0;fontColor=#5C5C5C;" parent="wFBebzfQempYTmUqBERj-4" vertex="1">
          <mxGeometry y="26" width="240" height="44" as="geometry" />
        </mxCell>
        <mxCell id="wFBebzfQempYTmUqBERj-6" value="" style="line;strokeWidth=1;fillColor=none;align=left;verticalAlign=middle;spacingTop=-1;spacingLeft=3;spacingRight=3;rotatable=0;labelPosition=right;points=[];portConstraint=eastwest;rounded=1;sketch=0;fontColor=#5C5C5C;" parent="wFBebzfQempYTmUqBERj-4" vertex="1">
          <mxGeometry y="70" width="240" height="8" as="geometry" />
        </mxCell>
        <mxCell id="wFBebzfQempYTmUqBERj-7" value="+ abrirBanco: bool" style="text;strokeColor=none;fillColor=none;align=left;verticalAlign=top;spacingLeft=4;spacingRight=4;overflow=hidden;rotatable=0;points=[[0,0.5],[1,0.5]];portConstraint=eastwest;rounded=1;sketch=0;fontColor=#5C5C5C;" parent="wFBebzfQempYTmUqBERj-4" vertex="1">
          <mxGeometry y="78" width="240" height="70" as="geometry" />
        </mxCell>
        <mxCell id="wFBebzfQempYTmUqBERj-9" value="possui" style="text;html=1;align=center;verticalAlign=middle;resizable=0;points=[];autosize=1;strokeColor=none;fillColor=none;fontColor=#5C5C5C;rounded=1;" parent="WIyWlLk6GJQsqaUBKTNV-1" vertex="1">
          <mxGeometry x="-550" y="70" width="50" height="20" as="geometry" />
        </mxCell>
        <mxCell id="wFBebzfQempYTmUqBERj-10" value="1...10" style="text;html=1;align=center;verticalAlign=middle;resizable=0;points=[];autosize=1;strokeColor=none;fillColor=none;fontColor=#5C5C5C;rounded=1;" parent="WIyWlLk6GJQsqaUBKTNV-1" vertex="1">
          <mxGeometry x="-445" y="70" width="50" height="20" as="geometry" />
        </mxCell>
        <mxCell id="wFBebzfQempYTmUqBERj-19" style="edgeStyle=orthogonalEdgeStyle;curved=0;rounded=1;sketch=0;orthogonalLoop=1;jettySize=auto;html=1;entryX=0.374;entryY=-0.034;entryDx=0;entryDy=0;entryPerimeter=0;fontColor=#5C5C5C;strokeColor=#006658;fillColor=#21C0A5;" parent="WIyWlLk6GJQsqaUBKTNV-1" source="wFBebzfQempYTmUqBERj-11" target="wFBebzfQempYTmUqBERj-15" edge="1">
          <mxGeometry relative="1" as="geometry" />
        </mxCell>
        <mxCell id="wFBebzfQempYTmUqBERj-11" value="Gerente" style="swimlane;fontStyle=1;align=center;verticalAlign=top;childLayout=stackLayout;horizontal=1;startSize=26;horizontalStack=0;resizeParent=1;resizeParentMax=0;resizeLast=0;collapsible=1;marginBottom=0;rounded=1;sketch=0;fontColor=#5C5C5C;strokeColor=#006658;fillColor=#21C0A5;" parent="WIyWlLk6GJQsqaUBKTNV-1" vertex="1">
          <mxGeometry x="-360" y="28" width="260" height="160" as="geometry" />
        </mxCell>
        <mxCell id="wFBebzfQempYTmUqBERj-12" value="- idGerente: int&#xa;+ nomeGerente: String" style="text;strokeColor=none;fillColor=none;align=left;verticalAlign=top;spacingLeft=4;spacingRight=4;overflow=hidden;rotatable=0;points=[[0,0.5],[1,0.5]];portConstraint=eastwest;rounded=1;sketch=0;fontColor=#5C5C5C;" parent="wFBebzfQempYTmUqBERj-11" vertex="1">
          <mxGeometry y="26" width="260" height="44" as="geometry" />
        </mxCell>
        <mxCell id="wFBebzfQempYTmUqBERj-13" value="" style="line;strokeWidth=1;fillColor=none;align=left;verticalAlign=middle;spacingTop=-1;spacingLeft=3;spacingRight=3;rotatable=0;labelPosition=right;points=[];portConstraint=eastwest;rounded=1;sketch=0;fontColor=#5C5C5C;" parent="wFBebzfQempYTmUqBERj-11" vertex="1">
          <mxGeometry y="70" width="260" height="8" as="geometry" />
        </mxCell>
        <mxCell id="wFBebzfQempYTmUqBERj-14" value="+ abrirConta(int idCliente): int idConta&#xa;+ fazerEmprestimo(int idConta): void&#xa;+ pedirCartão(int idCliente, int idConta): void" style="text;strokeColor=none;fillColor=none;align=left;verticalAlign=top;spacingLeft=4;spacingRight=4;overflow=hidden;rotatable=0;points=[[0,0.5],[1,0.5]];portConstraint=eastwest;rounded=1;sketch=0;fontColor=#5C5C5C;" parent="wFBebzfQempYTmUqBERj-11" vertex="1">
          <mxGeometry y="78" width="260" height="82" as="geometry" />
        </mxCell>
        <mxCell id="wFBebzfQempYTmUqBERj-29" style="edgeStyle=orthogonalEdgeStyle;curved=0;rounded=1;sketch=0;orthogonalLoop=1;jettySize=auto;html=1;entryX=1;entryY=0.5;entryDx=0;entryDy=0;fontColor=#5C5C5C;strokeColor=#006658;fillColor=#21C0A5;" parent="WIyWlLk6GJQsqaUBKTNV-1" source="wFBebzfQempYTmUqBERj-15" target="wFBebzfQempYTmUqBERj-25" edge="1">
          <mxGeometry relative="1" as="geometry" />
        </mxCell>
        <mxCell id="wFBebzfQempYTmUqBERj-15" value="Pessoa" style="swimlane;fontStyle=1;align=center;verticalAlign=top;childLayout=stackLayout;horizontal=1;startSize=26;horizontalStack=0;resizeParent=1;resizeParentMax=0;resizeLast=0;collapsible=1;marginBottom=0;rounded=1;sketch=0;fontColor=#5C5C5C;strokeColor=#006658;fillColor=#21C0A5;" parent="WIyWlLk6GJQsqaUBKTNV-1" vertex="1">
          <mxGeometry x="-330" y="280" width="260" height="260" as="geometry" />
        </mxCell>
        <mxCell id="wFBebzfQempYTmUqBERj-28" value="+ idCliente: int&#xa;- sexoCliente: char&#xa;+ nomeCliente: String&#xa;- eCivilCliente: char&#xa;- rendaCliente: float" style="text;strokeColor=none;fillColor=none;align=left;verticalAlign=top;spacingLeft=4;spacingRight=4;overflow=hidden;rotatable=0;points=[[0,0.5],[1,0.5]];portConstraint=eastwest;rounded=1;sketch=0;fontColor=#5C5C5C;fontSize=13;" parent="wFBebzfQempYTmUqBERj-15" vertex="1">
          <mxGeometry y="26" width="260" height="84" as="geometry" />
        </mxCell>
        <mxCell id="wFBebzfQempYTmUqBERj-17" value="" style="line;strokeWidth=1;fillColor=none;align=left;verticalAlign=middle;spacingTop=-1;spacingLeft=3;spacingRight=3;rotatable=0;labelPosition=right;points=[];portConstraint=eastwest;rounded=1;sketch=0;fontColor=#5C5C5C;" parent="wFBebzfQempYTmUqBERj-15" vertex="1">
          <mxGeometry y="110" width="260" height="10" as="geometry" />
        </mxCell>
        <mxCell id="wFBebzfQempYTmUqBERj-18" value="+ statusConta(bool statusConta): String&#xa;+ entrarConta(int idConta, int pwConta): void&#xa;+ verSaldo(int idConta, int pwConta): String &#xa;" style="text;strokeColor=none;fillColor=none;align=left;verticalAlign=top;spacingLeft=4;spacingRight=4;overflow=hidden;rotatable=0;points=[[0,0.5],[1,0.5]];portConstraint=eastwest;rounded=1;sketch=0;fontColor=#5C5C5C;" parent="wFBebzfQempYTmUqBERj-15" vertex="1">
          <mxGeometry y="120" width="260" height="140" as="geometry" />
        </mxCell>
        <mxCell id="wFBebzfQempYTmUqBERj-21" value="cuida de" style="text;html=1;align=center;verticalAlign=middle;resizable=0;points=[];autosize=1;strokeColor=none;fillColor=none;fontColor=#5C5C5C;" parent="WIyWlLk6GJQsqaUBKTNV-1" vertex="1">
          <mxGeometry x="-310" y="180" width="60" height="20" as="geometry" />
        </mxCell>
        <mxCell id="wFBebzfQempYTmUqBERj-22" value="1..50" style="text;html=1;align=center;verticalAlign=middle;resizable=0;points=[];autosize=1;strokeColor=none;fillColor=none;fontColor=#5C5C5C;" parent="WIyWlLk6GJQsqaUBKTNV-1" vertex="1">
          <mxGeometry x="-310" y="260" width="40" height="20" as="geometry" />
        </mxCell>
        <mxCell id="wFBebzfQempYTmUqBERj-24" value="Conta Bancária" style="swimlane;fontStyle=1;align=center;verticalAlign=top;childLayout=stackLayout;horizontal=1;startSize=26;horizontalStack=0;resizeParent=1;resizeParentMax=0;resizeLast=0;collapsible=1;marginBottom=0;rounded=1;sketch=0;fontColor=#5C5C5C;strokeColor=#006658;fillColor=#21C0A5;" parent="WIyWlLk6GJQsqaUBKTNV-1" vertex="1">
          <mxGeometry x="-790" y="310" width="250" height="210" as="geometry" />
        </mxCell>
        <mxCell id="wFBebzfQempYTmUqBERj-25" value="+ idConta: int&#xa;- pwConta: int&#xa;- statusConta: bool&#xa;-limiteConta: float" style="text;strokeColor=none;fillColor=none;align=left;verticalAlign=top;spacingLeft=4;spacingRight=4;overflow=hidden;rotatable=0;points=[[0,0.5],[1,0.5]];portConstraint=eastwest;rounded=1;sketch=0;fontColor=#5C5C5C;" parent="wFBebzfQempYTmUqBERj-24" vertex="1">
          <mxGeometry y="26" width="250" height="64" as="geometry" />
        </mxCell>
        <mxCell id="wFBebzfQempYTmUqBERj-26" value="" style="line;strokeWidth=1;fillColor=none;align=left;verticalAlign=middle;spacingTop=-1;spacingLeft=3;spacingRight=3;rotatable=0;labelPosition=right;points=[];portConstraint=eastwest;rounded=1;sketch=0;fontColor=#5C5C5C;" parent="wFBebzfQempYTmUqBERj-24" vertex="1">
          <mxGeometry y="90" width="250" height="8" as="geometry" />
        </mxCell>
        <mxCell id="wFBebzfQempYTmUqBERj-27" value="+ depositar(float qtde): void&#xa;+ sacar(float qtde): void&#xa;+ transf(float qtde, int idConta): void&#xa;- destravarConta(bool status, int idConta)" style="text;strokeColor=none;fillColor=none;align=left;verticalAlign=top;spacingLeft=4;spacingRight=4;overflow=hidden;rotatable=0;points=[[0,0.5],[1,0.5]];portConstraint=eastwest;rounded=1;sketch=0;fontColor=#5C5C5C;" parent="wFBebzfQempYTmUqBERj-24" vertex="1">
          <mxGeometry y="98" width="250" height="112" as="geometry" />
        </mxCell>
        <mxCell id="_teZEpmGl_t_8n33u-CZ-1" value="0..1" style="text;html=1;align=center;verticalAlign=middle;resizable=0;points=[];autosize=1;strokeColor=none;fillColor=none;fontSize=13;" vertex="1" parent="WIyWlLk6GJQsqaUBKTNV-1">
          <mxGeometry x="-530" y="340" width="40" height="20" as="geometry" />
        </mxCell>
        <mxCell id="_teZEpmGl_t_8n33u-CZ-2" value="possui" style="text;html=1;align=center;verticalAlign=middle;resizable=0;points=[];autosize=1;strokeColor=none;fillColor=none;fontSize=13;" vertex="1" parent="WIyWlLk6GJQsqaUBKTNV-1">
          <mxGeometry x="-395" y="340" width="50" height="20" as="geometry" />
        </mxCell>
      </root>
    </mxGraphModel>
  </diagram>
</mxfile>
